<svg width="128" height="128" viewBox="0 0 128 128" fill="none" xmlns="http://www.w3.org/2000/svg">
<g clip-path="url(#clip0_18_516)">
<rect width="128" height="128" fill="#E43F25"/>
<path d="M87.2771 18C86.0155 18 84.9929 19.0225 84.9929 20.2842C84.9933 21.5455 86.0157 22.5684 87.2771 22.5684L102.32 22.5684L69.6691 55.2195C68.777 56.1116 68.777 57.5581 69.6691 58.4502C70.5612 59.3423 72.0077 59.3423 72.8998 58.4502L105.551 25.7991V40.8422C105.551 42.1036 106.574 43.126 107.835 43.1264C109.097 43.1264 110.119 42.1038 110.119 40.8422V20.2842C110.119 19.0225 109.097 18 107.835 18H87.2771Z" fill="#FFED87" stroke="#FFED87" stroke-width="1.13273"/>
<path d="M62.5089 25.4319C56.5263 25.4305 50.6208 26.7812 45.2335 29.3829C39.8463 31.9847 35.1167 35.7702 31.398 40.4567C27.6794 45.1431 25.0679 50.6094 23.7587 56.4469C22.4495 62.2845 22.4764 68.3425 23.8374 74.1682L-26.2985 126.13C-29.8443 129.892 -31.771 134.895 -31.6636 140.063C-31.5562 145.231 -29.4233 150.149 -25.7243 153.76C-22.0253 157.37 -17.0561 159.384 -11.8872 159.366C-6.71821 159.348 -1.76304 157.301 1.91106 153.665L51.6102 103.321C57.9519 105.126 64.6433 105.324 71.0807 103.897C77.5182 102.471 83.4992 99.4638 88.4844 95.1483C93.4697 90.8327 97.3022 85.3442 99.6365 79.1775C101.971 73.0109 102.733 66.3601 101.855 59.8252C101.733 58.9064 101.357 58.0401 100.768 57.3244C100.179 56.6088 99.4012 56.0723 98.5231 55.7758C97.6449 55.4793 96.7013 55.4346 95.7991 55.6468C94.8969 55.859 94.0721 56.3196 93.4182 56.9765L72.4348 77.9698L49.6746 55.2097L70.668 34.2163C71.3248 33.5624 71.7854 32.7376 71.9976 31.8354C72.2098 30.9332 72.1652 29.9896 71.8687 29.1114C71.5722 28.2333 71.0357 27.4558 70.32 26.8668C69.6043 26.2779 68.738 25.9012 67.8192 25.7793C66.0556 25.5444 64.2782 25.4283 62.4989 25.4319" fill="#FFED87"/>
</g>
<defs>
<clipPath id="clip0_18_516">
<rect width="128" height="128" fill="white"/>
</clipPath>
</defs>
</svg>
